<svg width="25" height="25" viewBox="0 0 25 25" fill="none" xmlns="http://www.w3.org/2000/svg">
<g filter="url(#filter0_bii_255_35)">
<rect width="25" height="25" rx="12.5" fill="#F0F0F0" fill-opacity="0.1"/>
</g>
<path d="M17.9792 8.88889H15.7222V8.02083C15.7222 7.73221 15.49 7.5 15.2014 7.5H9.29861C9.00998 7.5 8.77778 7.73221 8.77778 8.02083V8.88889H6.52083C6.2322 8.88889 6 9.1211 6 9.40972V10.625C6 11.3997 6.48828 12.1962 7.34332 12.8103C8.02691 13.303 8.85807 13.6155 9.73047 13.7153C10.4119 14.8459 11.2083 15.3125 11.2083 15.3125V16.875H10.1667C9.40061 16.875 8.77778 17.3242 8.77778 18.0903V18.3507C8.77778 18.4939 8.89497 18.6111 9.03819 18.6111H15.4618C15.605 18.6111 15.7222 18.4939 15.7222 18.3507V18.0903C15.7222 17.3242 15.0994 16.875 14.3333 16.875H13.2917V15.3125C13.2917 15.3125 14.0881 14.8459 14.7695 13.7153C15.6441 13.6155 16.4753 13.303 17.1567 12.8103C18.0095 12.1962 18.5 11.3997 18.5 10.625V9.40972C18.5 9.1211 18.2678 8.88889 17.9792 8.88889ZM8.15495 11.684C7.62543 11.3021 7.38889 10.8767 7.38889 10.625V10.2778H8.78212C8.80382 10.9852 8.90799 11.6059 9.0599 12.1484C8.7322 12.0356 8.42622 11.8793 8.15495 11.684V11.684ZM17.1111 10.625C17.1111 10.9744 16.727 11.4084 16.3451 11.684C16.0738 11.8793 15.7656 12.0356 15.4379 12.1484C15.5898 11.6059 15.694 10.9852 15.7157 10.2778H17.1111V10.625Z" fill="#FEC505"/>
<defs>
<filter id="filter0_bii_255_35" x="-5.33333" y="-5.33333" width="35.6667" height="35.6667" filterUnits="userSpaceOnUse" color-interpolation-filters="sRGB">
<feFlood flood-opacity="0" result="BackgroundImageFix"/>
<feGaussianBlur in="BackgroundImage" stdDeviation="2.66667"/>
<feComposite in2="SourceAlpha" operator="in" result="effect1_backgroundBlur_255_35"/>
<feBlend mode="normal" in="SourceGraphic" in2="effect1_backgroundBlur_255_35" result="shape"/>
<feColorMatrix in="SourceAlpha" type="matrix" values="0 0 0 0 0 0 0 0 0 0 0 0 0 0 0 0 0 0 127 0" result="hardAlpha"/>
<feOffset dx="-2.66667" dy="2.66667"/>
<feGaussianBlur stdDeviation="1.33333"/>
<feComposite in2="hardAlpha" operator="arithmetic" k2="-1" k3="1"/>
<feColorMatrix type="matrix" values="0 0 0 0 1 0 0 0 0 1 0 0 0 0 1 0 0 0 0.1 0"/>
<feBlend mode="normal" in2="shape" result="effect2_innerShadow_255_35"/>
<feColorMatrix in="SourceAlpha" type="matrix" values="0 0 0 0 0 0 0 0 0 0 0 0 0 0 0 0 0 0 127 0" result="hardAlpha"/>
<feOffset dx="2.66667" dy="-2.66667"/>
<feGaussianBlur stdDeviation="1.33333"/>
<feComposite in2="hardAlpha" operator="arithmetic" k2="-1" k3="1"/>
<feColorMatrix type="matrix" values="0 0 0 0 0.715294 0 0 0 0 0.715294 0 0 0 0 0.715294 0 0 0 0.1 0"/>
<feBlend mode="normal" in2="effect2_innerShadow_255_35" result="effect3_innerShadow_255_35"/>
</filter>
</defs>
</svg>
