<svg width="264" height="25" viewBox="0 0 264 25" fill="none" xmlns="http://www.w3.org/2000/svg">
<path d="M135.594 12.6635H133.25V10.4739C133.25 9.26625 134.091 8.28436 135.125 8.28436H135.359C135.749 8.28436 136.062 7.91829 136.062 7.46327V5.82109C136.062 5.36607 135.749 5 135.359 5H135.125C132.535 5 130.438 7.44959 130.438 10.4739V18.6848C130.438 19.5915 131.067 20.327 131.844 20.327H135.594C136.37 20.327 137 19.5915 137 18.6848V14.3057C137 13.3991 136.37 12.6635 135.594 12.6635ZM127.156 12.6635H124.812V10.4739C124.812 9.26625 125.653 8.28436 126.688 8.28436H126.922C127.312 8.28436 127.625 7.91829 127.625 7.46327V5.82109C127.625 5.36607 127.312 5 126.922 5H126.688C124.098 5 122 7.44959 122 10.4739V18.6848C122 19.5915 122.63 20.327 123.406 20.327H127.156C127.933 20.327 128.562 19.5915 128.562 18.6848V14.3057C128.562 13.3991 127.933 12.6635 127.156 12.6635Z" fill="#787878"/>
<line x1="6" y1="12.5" x2="113.692" y2="12.5" stroke="#787878"/>
<line x1="149.59" y1="12.5" x2="257.282" y2="12.5" stroke="#787878"/>
</svg>
